<svg width="24" height="24" viewBox="0 0 24 24" fill="none" xmlns="http://www.w3.org/2000/svg">
	<path d="M7.93955 21.5462C7.65834 21.2649 7.50037 20.8834 7.50037 20.4857C7.50037 20.0879 7.65834 19.7065 7.93955 19.4252L15.3646 12.0002L7.93955 4.57517C7.66631 4.29227 7.51512 3.91336 7.51854 3.52007C7.52196 3.12677 7.67971 2.75055 7.95782 2.47244C8.23594 2.19433 8.61216 2.03658 9.00545 2.03316C9.39875 2.02974 9.77765 2.18093 10.0606 2.45417L18.5461 10.9397C18.8273 11.221 18.9852 11.6024 18.9852 12.0002C18.9852 12.3979 18.8273 12.7794 18.5461 13.0607L10.0605 21.5462C9.77926 21.8274 9.3978 21.9854 9.00005 21.9854C8.6023 21.9854 8.22084 21.8274 7.93955 21.5462Z" fill="current" />
</svg>
