<svg width="24" height="24" viewBox="0 0 24 24" fill="none" xmlns="http://www.w3.org/2000/svg">
<path d="M16.0604 2.45383C16.3417 2.73512 16.4996 3.11658 16.4996 3.51433C16.4996 3.91207 16.3417 4.29354 16.0604 4.57483L8.63545 11.9998L16.0604 19.4248C16.3337 19.7077 16.4849 20.0866 16.4815 20.4799C16.478 20.8732 16.3203 21.2494 16.0422 21.5276C15.7641 21.8057 15.3878 21.9634 14.9946 21.9668C14.6013 21.9703 14.2224 21.8191 13.9395 21.5458L5.45395 13.0603C5.17274 12.779 5.01477 12.3976 5.01477 11.9998C5.01477 11.6021 5.17274 11.2206 5.45395 10.9393L13.9395 2.45383C14.2207 2.17262 14.6022 2.01465 15 2.01465C15.3977 2.01465 15.7792 2.17262 16.0604 2.45383Z" fill="current"/>
</svg>
