<svg width="16" height="16" viewBox="0 0 16 16" fill="none" xmlns="http://www.w3.org/2000/svg">
<path d="M3.80955 3.81004H12.1905M3.42859 1.90527H12.5715C12.9756 1.90527 13.3632 2.06582 13.6489 2.35159C13.9347 2.63736 14.0953 3.02494 14.0953 3.42908V12.5643C14.0953 12.9685 13.9347 13.356 13.6489 13.6418C13.3632 13.9276 12.9756 14.0881 12.5715 14.0881H3.42859C3.02446 14.0881 2.63687 13.9276 2.3511 13.6418C2.06533 13.356 1.90479 12.9685 1.90479 12.5643V3.42908C1.90479 3.02494 2.06533 2.63736 2.3511 2.35159C2.63687 2.06582 3.02446 1.90527 3.42859 1.90527Z" stroke="#151515" stroke-width="1.4" stroke-linecap="round" stroke-linejoin="round"/>
<path fill-rule="evenodd" clip-rule="evenodd" d="M5.19319 9.26142V8.43932H5.86367C6.37262 8.43932 6.71852 8.13837 6.71852 7.69875C6.71852 7.29723 6.40233 6.99247 5.87814 6.99247C5.3349 6.99247 5.00043 7.27132 4.96309 7.75132H3.92386C3.96271 6.76161 4.72462 6.0957 5.93376 6.0957C7.12462 6.0957 7.78671 6.75399 7.7829 7.53951C7.77909 8.19018 7.36995 8.61837 6.79319 8.75932V8.83018C7.54062 8.93761 7.99471 9.4138 7.99471 10.1323C7.99471 11.0732 7.10938 11.7399 5.89643 11.7399C4.68347 11.7399 3.85757 11.0763 3.80957 10.0607H4.88462C4.91814 10.5148 5.30519 10.805 5.88195 10.805C6.45109 10.805 6.84957 10.4957 6.84957 10.0309C6.84957 9.55475 6.477 9.26142 5.87433 9.26142H5.19319ZM10.298 11.602V7.32694H10.2317L8.91433 8.23513V7.1898L10.3018 6.23361H11.4218V11.602H10.298Z" fill="#151515"/>
</svg>
