<svg width="16" height="16" viewBox="0 0 16 16" fill="none" xmlns="http://www.w3.org/2000/svg">
<path d="M2.5 3V9.7815L1.3595 10.9375C1.13119 11.1655 1.00201 11.4743 1 11.797C1.00145 12.1156 1.12866 12.4208 1.35395 12.6461C1.57924 12.8713 1.88439 12.9986 2.203 13H13.797C14.1156 12.9986 14.4208 12.8713 14.6461 12.6461C14.8713 12.4208 14.9986 12.1156 15 11.797C15 11.477 14.867 11.164 14.6405 10.9375L13.5 9.781V3H2.5ZM3.5 4H12.5V9.5H3.5V4ZM3.2185 10.5H12.781L13.9375 11.6405C13.9772 11.683 13.9995 11.7389 14 11.797C14.0015 11.8241 13.9973 11.8511 13.9876 11.8764C13.978 11.9018 13.9631 11.9248 13.9439 11.9439C13.9248 11.9631 13.9018 11.978 13.8764 11.9876C13.8511 11.9973 13.8241 12.0015 13.797 12H2.203C2.17594 12.0015 2.14887 11.9973 2.12355 11.9876C2.09823 11.978 2.07524 11.9631 2.05608 11.9439C2.03692 11.9248 2.02202 11.9018 2.01235 11.8764C2.00269 11.8511 1.99848 11.8241 2 11.797C2 11.742 2.0235 11.6795 2.0625 11.6405L3.2185 10.5Z" fill="#151515" stroke="#151515" stroke-width="0.5"/>
</svg>
