<svg width="16" height="16" viewBox="0 0 16 16" fill="none" xmlns="http://www.w3.org/2000/svg">
	<path fill-rule="evenodd" clip-rule="evenodd" d="M9.58998 10.2969C8.69142 11.0148 7.55206 11.3615 6.4059 11.2656C5.25975 11.1697 4.19381 10.6386 3.42701 9.78137C2.66021 8.92412 2.25076 7.8058 2.28275 6.65609C2.31474 5.50638 2.78574 4.41255 3.59903 3.59927C4.41231 2.78599 5.50613 2.31498 6.65584 2.28299C7.80555 2.251 8.92388 2.66045 9.78112 3.42725C10.6384 4.19405 11.1695 5.25999 11.2653 6.40615C11.3612 7.5523 11.0146 8.69166 10.2966 9.59022L13.734 13.0269C13.7831 13.0727 13.8225 13.1279 13.8498 13.1892C13.8772 13.2505 13.8919 13.3167 13.893 13.3839C13.8942 13.451 13.8819 13.5177 13.8567 13.58C13.8316 13.6422 13.7941 13.6988 13.7467 13.7462C13.6992 13.7937 13.6426 13.8312 13.5804 13.8563C13.5181 13.8814 13.4514 13.8938 13.3843 13.8926C13.3172 13.8914 13.251 13.8767 13.1896 13.8494C13.1283 13.8221 13.0731 13.7827 13.0273 13.7336L9.58998 10.2969ZM4.30598 9.25555C3.81667 8.7662 3.48341 8.14277 3.34832 7.46407C3.21323 6.78536 3.28236 6.08184 3.54699 5.44242C3.81161 4.803 4.25985 4.25637 4.83505 3.87162C5.41026 3.48687 6.08661 3.28128 6.77862 3.28081C7.47064 3.28034 8.14727 3.48503 8.72299 3.86901C9.29871 4.25298 9.74768 4.799 10.0132 5.43807C10.2787 6.07714 10.3487 6.78056 10.2146 7.45945C10.0804 8.13833 9.74796 8.76221 9.25931 9.25222L9.25598 9.25555L9.25264 9.25822C8.59604 9.9133 7.70626 10.281 6.77876 10.2805C5.85125 10.28 4.96188 9.91134 4.30598 9.25555Z" fill="black" />
</svg>
